<?xml version="1.0" encoding="utf-8"?>
<!-- Generator: Adobe Illustrator 24.1.1, SVG Export Plug-In . SVG Version: 6.00 Build 0)  -->
<svg version="1.1" id="Слой_1" xmlns="http://www.w3.org/2000/svg" xmlns:xlink="http://www.w3.org/1999/xlink" x="0px" y="0px"
	 viewBox="0 0 119.7 119.7" style="enable-background:new 0 0 119.7 119.7;" xml:space="preserve">
<style type="text/css">
	.st0{fill:#19BD9A;}
</style>
<path class="st0" d="M112.1,82.3l-0.1,0.1c-8.9,20.6-29.3,34-51.8,34h-0.3C29,116.3,3.7,90.9,3.6,59.9C3.6,28.8,28.9,3.5,60,3.4
	l0.5,0V0H60C27,0,0.1,26.9,0.1,59.9c0,32.9,26.6,59.6,59.5,59.9v0h0.4h0.3h0.2v0c25.1-0.1,47.7-16,56.2-39.6l0.5-1.5L112.1,82.3z"/>
<path class="st0" d="M59.7,2.4L59.7,2.4L59.7,2.4z"/>
</svg>
