<?xml version="1.0" encoding="utf-8"?>
<!-- Generator: Adobe Illustrator 24.1.1, SVG Export Plug-In . SVG Version: 6.00 Build 0)  -->
<svg version="1.1" id="Слой_1" xmlns="http://www.w3.org/2000/svg" xmlns:xlink="http://www.w3.org/1999/xlink" x="0px" y="0px"
	 viewBox="0 0 120 120" style="enable-background:new 0 0 120 120;" xml:space="preserve">
<style type="text/css">
	.st0{fill:#19BD9A;}
</style>
<path class="st0" d="M119.2,50.2l-0.2-1.3l-2.8,4.6l0,0.2c3.4,30.9-18.9,58.9-49.9,62.3c-2.1,0.2-4.2,0.3-6.2,0.4
	C29,116.3,3.6,91,3.6,59.9S28.9,3.5,60.2,3.5h0.3L62.5,0h-2.5C27,0,0.2,26.9,0.2,59.9c0,33,26.9,59.9,59.9,59.9
	c33,0,59.9-26.9,59.9-59.9C120,56.9,119.7,53.6,119.2,50.2z"/>
</svg>
