<?xml version="1.0" encoding="utf-8"?>
<!-- Generator: Adobe Illustrator 24.1.1, SVG Export Plug-In . SVG Version: 6.00 Build 0)  -->
<svg version="1.1" id="Слой_1" xmlns="http://www.w3.org/2000/svg" xmlns:xlink="http://www.w3.org/1999/xlink" x="0px" y="0px"
	 viewBox="0 0 120 120" style="enable-background:new 0 0 120 120;" xml:space="preserve">
<style type="text/css">
	.st0{fill:#19BD9A;}
</style>
<path class="st0" d="M81.1,112.5l-0.3,0.1c-6.6,2.7-13.6,4-20.8,4C28.8,116.6,3.4,91.2,3.4,60c0-15.1,5.9-29.4,16.6-40.1
	C30.7,9.3,44.8,3.5,59.8,3.5c0.1,0,0.1,0,0.2,0l0.2,0l2.8-3.2l-0.9-0.1C61.4,0,60.7,0,60,0C26.9,0,0,26.9,0,60c0,33.1,26.9,60,60,60
	c8,0,15.9-1.6,23.3-4.7l0.7-0.3L81.1,112.5z"/>
</svg>
