<?xml version="1.0" encoding="utf-8"?>
<!-- Generator: Adobe Illustrator 24.1.1, SVG Export Plug-In . SVG Version: 6.00 Build 0)  -->
<svg version="1.1" id="Слой_1" xmlns="http://www.w3.org/2000/svg" xmlns:xlink="http://www.w3.org/1999/xlink" x="0px" y="0px"
	 viewBox="0 0 30 30" style="enable-background:new 0 0 30 30;" xml:space="preserve">
<style type="text/css">
	.st0{fill:#FFFFFF;}
</style>
<circle cx="15" cy="15" r="15"/>
<path class="st0" d="M15,25.2c-0.3,0-0.6-0.1-0.8-0.3c-0.8-0.8-1.6-1.6-2.3-2.3l0,0c-2.1-2-3.8-3.7-5.1-5.4c-1.4-1.9-2-3.7-2-5.6
	c0-1.9,0.6-3.6,1.6-4.9c1.1-1.3,2.5-2,4.1-2c1.2,0,2.3,0.4,3.2,1.2c0.5,0.4,0.9,0.9,1.3,1.5c0.4-0.6,0.8-1.1,1.3-1.5
	c1-0.8,2-1.2,3.2-1.2c1.6,0,3,0.7,4.1,2c1,1.3,1.6,3,1.6,4.9c0,1.9-0.6,3.7-2,5.6c-1.2,1.7-3,3.4-5.1,5.4c-0.7,0.7-1.5,1.4-2.3,2.3
	C15.6,25.1,15.3,25.2,15,25.2z M10.5,6.1c-1.2,0-2.4,0.6-3.2,1.6c-0.8,1-1.3,2.4-1.3,4c0,1.6,0.5,3.1,1.8,4.8
	c1.2,1.6,2.9,3.3,4.9,5.2l0,0c0.7,0.7,1.5,1.4,2.3,2.3c0.8-0.8,1.6-1.6,2.3-2.3c2-1.9,3.8-3.6,4.9-5.2c1.2-1.6,1.8-3.1,1.8-4.8
	c0-1.6-0.5-3-1.3-4c-0.8-1-2-1.6-3.2-1.6c-0.9,0-1.7,0.3-2.5,1c-0.7,0.6-1.1,1.3-1.4,1.8c-0.1,0.3-0.4,0.4-0.7,0.4s-0.5-0.2-0.7-0.4
	c-0.3-0.5-0.7-1.2-1.4-1.8C12.2,6.4,11.4,6.1,10.5,6.1z"/>
</svg>
