<?xml version="1.0" encoding="utf-8"?>
<!-- Generator: Adobe Illustrator 24.1.1, SVG Export Plug-In . SVG Version: 6.00 Build 0)  -->
<svg version="1.1" id="Capa_1" xmlns="http://www.w3.org/2000/svg" xmlns:xlink="http://www.w3.org/1999/xlink" x="0px" y="0px"
	 viewBox="0 0 50.8 50.8" style="enable-background:new 0 0 50.8 50.8;" xml:space="preserve">
<style type="text/css">
	.st0{fill:#81868E;}
</style>
<g>
	<path class="st0" d="M45,26.6h-4.5c-3.5,0-6.3,2.8-6.3,6.3c0,2.3-1.6,4.2-3.8,4.4c-1.2,0.2-2.5-0.2-3.4-1c-0.9-0.8-1.5-2-1.5-3.2
		v-3.8l0.4-0.1c3.3-0.7,5.7-3.6,5.7-7v-3.9c0-0.3-0.2-0.5-0.5-0.5h-2.4v-5.3c0-0.5-0.4-0.9-0.8-1c-0.3,0-0.5,0.1-0.7,0.2
		c-0.2,0.2-0.3,0.4-0.3,0.7v5.4h-4.8v-5.3c0-0.5-0.4-0.9-0.8-1c-0.3,0-0.5,0.1-0.7,0.2s-0.3,0.4-0.3,0.7v5.4h-2.4
		c-0.3,0-0.5,0.2-0.5,0.5v3.9c0,3.4,2.4,6.3,5.7,7l0.4,0.1v3.7c0,3.5,2.8,6.4,6.1,6.6c1.8,0.1,3.4-0.6,4.7-1.8c1.3-1.2,2-2.8,2-4.6
		c0-2.4,1.9-4.4,4.3-4.4H45c0.6,0,1-0.5,1-1C46,27,45.5,26.6,45,26.6z"/>
	<path class="st0" d="M25.4,0C11.4,0,0,11.4,0,25.4c0,14,11.4,25.4,25.4,25.4c14,0,25.4-11.4,25.4-25.4C50.8,11.4,39.4,0,25.4,0z
		 M45,29.6h-4.4c-1.8,0-3.3,1.5-3.3,3.3c0,2.1-0.8,4-2.3,5.4c-1.4,1.3-3.2,2.1-5.1,2.1c-0.1,0-0.2,0-0.3,0c-3.9-0.1-7.1-3.5-7.1-7.6
		V30c-3.6-0.9-6.1-4.2-6.1-7.9v-3.9c0-0.8,0.7-1.5,1.5-1.5h1.4v-4.4c0-0.5,0.2-1.1,0.6-1.4c0.4-0.4,0.9-0.5,1.5-0.5
		c1,0.1,1.8,1,1.8,2v4.3h2.8v-4.4c0-0.5,0.2-1.1,0.6-1.4c0.4-0.4,0.9-0.5,1.5-0.5c1,0.1,1.7,1,1.7,2v4.3h1.4c0.8,0,1.5,0.7,1.5,1.5
		v3.9c0,3.7-2.6,7-6.1,7.9v3c0,1,0.4,1.9,1.1,2.5c0.7,0.6,1.7,0.9,2.6,0.8c1.6-0.2,2.9-1.7,2.9-3.4c0-4,3.3-7.3,7.3-7.3H45
		c1.1,0,2,0.9,2,2C47,28.7,46.1,29.6,45,29.6z"/>
</g>
</svg>
