<?xml version="1.0" encoding="utf-8"?>
<!-- Generator: Adobe Illustrator 24.1.1, SVG Export Plug-In . SVG Version: 6.00 Build 0)  -->
<svg version="1.1" id="Слой_1" xmlns="http://www.w3.org/2000/svg" xmlns:xlink="http://www.w3.org/1999/xlink" x="0px" y="0px"
	 viewBox="0 0 50.7 50" style="enable-background:new 0 0 50.7 50;" xml:space="preserve">
<style type="text/css">
	.st0{fill:#81868E;}
</style>
<g>
	<path class="st0" d="M39.6,16.4c0-0.6-0.1-1.2-0.3-1.8c-0.1-0.2-0.2-0.3-0.4-0.4c-0.2,0-0.4,0-0.5,0.2l-2.3,2.3H35l-1.2-1.3v-1.1
		L36,12c0.1-0.1,0.2-0.3,0.1-0.5c0-0.2-0.2-0.3-0.4-0.4c-0.6-0.2-1.2-0.3-1.8-0.3c-1.8,0-3.5,0.8-4.5,2.3c-0.9,1.3-1.3,2.9-0.9,4.4
		l0.1,0.3l-4.1,4.1l-6.8-6.8v-1.3c0-0.2-0.1-0.4-0.3-0.5l-3.9-2.4c-0.2-0.1-0.5-0.1-0.7,0.1l-1.6,1.6c-0.2,0.2-0.2,0.5-0.1,0.7
		l2.4,3.9c0.1,0.2,0.3,0.3,0.5,0.3l1.3,0l6.8,6.8l-4.1,4.1l-0.3-0.1c-1.5-0.3-3.1,0-4.4,0.9c-1.5,1.1-2.3,2.7-2.3,4.5
		c0,0.6,0.1,1.2,0.3,1.8c0.1,0.2,0.2,0.3,0.4,0.4c0.2,0,0.4,0,0.5-0.1l2.3-2.3h1.1l1.3,1.3v1.1L14.7,38c-0.1,0.1-0.2,0.3-0.2,0.5
		c0,0.2,0.2,0.3,0.4,0.4c0.6,0.2,1.2,0.3,1.8,0.3c1.8,0,3.4-0.8,4.5-2.3c0.9-1.3,1.3-2.9,0.9-4.4l-0.1-0.3l3.3-3.3l0.8,0.8l-0.3,0.3
		c-0.1,0.1-0.2,0.3-0.2,0.4c0,0.1,0.1,0.3,0.2,0.4c0.2,0.2,0.5,0.2,0.8,0l0.3-0.3l7,7.7c0.6,0.6,1.5,1,2.3,1s1.7-0.3,2.4-1
		c0.6-0.6,1-1.5,1-2.4c0-0.9-0.4-1.7-1-2.4l-7.6-7l0.3-0.3c0.2-0.2,0.2-0.6,0-0.8c-0.2-0.2-0.6-0.2-0.8,0l-0.3,0.3L29.3,25l3.3-3.3
		l0.3,0.1c0.4,0.1,0.8,0.1,1.2,0.1C37.1,21.9,39.6,19.4,39.6,16.4z"/>
	<path class="st0" d="M25.4-0.4C11.4-0.4,0,11,0,25s11.4,25.4,25.4,25.4S50.7,39,50.7,25S39.4-0.4,25.4-0.4z M31.9,24.8
		c0.4,0.4,0.6,1.1,0.3,1.7l7,6.4c0.8,0.8,1.3,1.9,1.3,3.1c0,1.1-0.4,2.2-1.2,3c-0.8,0.8-1.9,1.2-3,1.2s-2.2-0.4-3-1.2l-6.5-7
		c-0.5,0.2-1.2,0.1-1.7-0.3c-0.2-0.2-0.3-0.4-0.4-0.6l-1.6,1.6c0.3,1.7-0.1,3.5-1.1,4.9c-1.2,1.7-3.2,2.7-5.3,2.7
		c-0.7,0-1.4-0.1-2.1-0.3c-0.5-0.2-0.9-0.6-1-1.1c-0.1-0.5,0-1,0.4-1.4l2-2V35l-0.7-0.7h-0.3l-2,2c-0.4,0.4-0.9,0.5-1.4,0.4
		c-0.5-0.1-0.9-0.5-1.1-1c-0.2-0.7-0.3-1.4-0.3-2.1c0-2.1,1-4,2.7-5.3c1.4-1,3.2-1.4,4.9-1.1l3-3L15,18.4l-1,0c-0.5,0-1-0.3-1.3-0.7
		l-2.4-3.9c-0.4-0.6-0.3-1.3,0.2-1.8l1.6-1.6c0.5-0.5,1.2-0.6,1.8-0.2l3.9,2.4c0.4,0.3,0.7,0.8,0.7,1.3v1l5.9,5.9l3.1-3.1
		c-0.3-1.7,0.1-3.5,1.1-4.9c1.2-1.7,3.2-2.7,5.3-2.7c0.7,0,1.4,0.1,2.1,0.3c0.5,0.2,0.9,0.6,1,1.1c0.1,0.5,0,1-0.4,1.4l-2,2v0.4
		l0.7,0.7h0.3l2-2c0.4-0.4,0.9-0.5,1.4-0.4c0.5,0.1,0.9,0.5,1.1,1c0.2,0.7,0.3,1.4,0.3,2.1c0,3.6-2.9,6.5-6.5,6.5
		c-0.4,0-0.8,0-1.1-0.1l-1.6,1.6C31.5,24.4,31.7,24.6,31.9,24.8z"/>
</g>
</svg>
