<svg id="Слой_1" data-name="Слой 1" xmlns="http://www.w3.org/2000/svg" viewBox="0 0 50 50"><defs><style>.cls-1{fill:#81868e;}</style></defs><polygon class="cls-1" points="38.55 16.21 39.26 16.2 39.26 12.96 38.55 12.97 38.55 16.21"/><path class="cls-1" d="M25.6,38.78h2.29a.75.75,0,0,0,.24,0l-1.29-9.16h-.19l-1.29,9.16A.65.65,0,0,0,25.6,38.78Z"/><path class="cls-1" d="M36.71,11.22H14.54a.71.71,0,0,0-.71.72v5.3a.71.71,0,0,0,.71.72H36.71a.71.71,0,0,0,.71-.72v-5.3A.71.71,0,0,0,36.71,11.22Z"/><path class="cls-1" d="M25,0A25,25,0,1,0,50,25,25,25,0,0,0,25,0ZM40.38,16.21a1.1,1.1,0,0,1-1.11,1.11h-.73a1.84,1.84,0,0,1-1.83,1.76H14.54a1.84,1.84,0,0,1-1.84-1.84V15.15H11a.22.22,0,0,0-.22.22V20a.22.22,0,0,0,.22.22H26a1.35,1.35,0,0,1,1.35,1.34v6.85h.51l1.44,10.26a.94.94,0,0,1-.23.73,1.51,1.51,0,0,1-1.14.46H25.6a1.54,1.54,0,0,1-1.14-.45,1,1,0,0,1-.23-.73l1.44-10.27h.51V21.6a.22.22,0,0,0-.22-.22H11A1.34,1.34,0,0,1,9.62,20V15.37A1.35,1.35,0,0,1,11,14H12.7V11.94a1.84,1.84,0,0,1,1.84-1.84H36.71a1.84,1.84,0,0,1,1.83,1.75h.73A1.11,1.11,0,0,1,40.38,13Z"/></svg>