<?xml version="1.0" encoding="utf-8"?>
<!-- Generator: Adobe Illustrator 24.1.1, SVG Export Plug-In . SVG Version: 6.00 Build 0)  -->
<svg version="1.1" id="Icons" xmlns="http://www.w3.org/2000/svg" xmlns:xlink="http://www.w3.org/1999/xlink" x="0px" y="0px"
	 viewBox="0 0 50 50" style="enable-background:new 0 0 50 50;" xml:space="preserve">
<style type="text/css">
	.st0{fill:#81868E;}
</style>
<g>
	<path class="st0" d="M18.1,30.7c0,3.8,3.1,6.9,6.9,6.9s6.9-3.1,6.9-6.9v-4.9H18.1V30.7z"/>
	<path class="st0" d="M24.6,23.6c-0.5-0.2-0.9-0.7-0.9-1.2v-1.9c0-0.6,0.4-1,0.9-1.2v-1.9c-3.6,0.2-6.5,3.2-6.5,6.9V25h6.5V23.6z"/>
	<path class="st0" d="M24.6,22.3c0,0.2,0.2,0.4,0.4,0.4s0.4-0.2,0.4-0.4v-1.9c0-0.2-0.2-0.4-0.4-0.4s-0.4,0.2-0.4,0.4V22.3z"/>
	<path class="st0" d="M25,0C11.2,0,0,11.2,0,25s11.2,25,25,25s25-11.2,25-25S38.8,0,25,0z M32.8,30.7c0,4.3-3.5,7.8-7.8,7.8
		c-4.3,0-7.8-3.5-7.8-7.8v-6.6c0-4.2,3.3-7.6,7.3-7.8v-1.1c0-0.5-0.4-0.9-0.9-0.9h-2.3c-1,0-1.7-0.8-1.7-1.7v-0.7
		c0-0.2,0.2-0.4,0.4-0.4c0.2,0,0.4,0.2,0.4,0.4v0.7c0,0.5,0.4,0.9,0.9,0.9h2.3c1,0,1.7,0.8,1.7,1.7v1.1c4.1,0.2,7.3,3.6,7.3,7.8
		V30.7z"/>
	<path class="st0" d="M25.4,17.3v1.9c0.5,0.2,0.9,0.7,0.9,1.2v1.9c0,0.6-0.4,1-0.9,1.2V25h6.5v-0.8C31.9,20.5,29,17.5,25.4,17.3z"/>
</g>
</svg>
