<?xml version="1.0" encoding="utf-8"?>
<!-- Generator: Adobe Illustrator 24.1.1, SVG Export Plug-In . SVG Version: 6.00 Build 0)  -->
<svg version="1.1" id="Capa_1" xmlns="http://www.w3.org/2000/svg" xmlns:xlink="http://www.w3.org/1999/xlink" x="0px" y="0px"
	 viewBox="0 0 50 50" style="enable-background:new 0 0 50 50;" xml:space="preserve">
<style type="text/css">
	.st0{fill:#81868E;}
</style>
<g>
	<path class="st0" d="M25,9.5C25,9.5,25,9.5,25,9.5c-2.7,0-5.2,1.1-7,2.9c-1.8,1.9-2.8,4.3-2.8,7c0,2.5,1,4.9,2.7,6.7
		c1.4,1.5,2.4,3.4,2.7,5.4c0.1,0.4,0.4,0.8,0.8,0.9H24v-9.2c-0.9-0.4-1.5-1.3-1.5-2.2c0-0.6,0.3-1.3,0.7-1.7
		c0.4-0.5,1.1-0.7,1.7-0.7c0.6,0,1.3,0.3,1.7,0.7c0.5,0.5,0.7,1.1,0.7,1.7s-0.3,1.3-0.7,1.7c-0.2,0.2-0.4,0.3-0.6,0.5v9.3h2.5
		c0.4-0.2,0.7-0.5,0.8-0.9c0.3-2,1.2-3.9,2.7-5.4c1.8-1.8,2.8-4.3,2.8-6.8c0-2.6-1-5.1-2.9-7C30.1,10.5,27.6,9.5,25,9.5z"/>
	<path class="st0" d="M28.2,33.5h-6.4c-0.2,0-0.4,0-0.6-0.1h-0.3v4.4h8.2v-4.4h-0.3C28.6,33.5,28.4,33.5,28.2,33.5z"/>
	<path class="st0" d="M25,0C11.2,0,0,11.2,0,25s11.2,25,25,25s25-11.2,25-25S38.8,0,25,0z M32.8,26.8c-1.3,1.3-2.1,3-2.4,4.9
		c0,0.3-0.1,0.5-0.3,0.8h0v6.4H19.9v-6.4c-0.1-0.2-0.2-0.5-0.3-0.8c-0.3-1.8-1.1-3.6-2.4-4.9c-1.9-2-3-4.6-3-7.4
		c0-2.9,1.1-5.6,3.1-7.7c2-2.1,4.7-3.2,7.6-3.2c2.9,0,5.6,1.1,7.7,3.1c2.1,2,3.2,4.8,3.2,7.7C35.8,22.1,34.7,24.8,32.8,26.8z"/>
	<path class="st0" d="M25.6,32.3v-9.4l0.2-0.1c0.2-0.1,0.5-0.2,0.6-0.4C26.7,22,27,21.5,27,21c0-0.5-0.2-1-0.6-1.4l0,0
		c-0.7-0.7-2-0.7-2.7,0C23.3,20,23,20.5,23,21c0,0.8,0.5,1.6,1.3,1.8l0.2,0.1v9.4H25.6z"/>
</g>
</svg>
