<?xml version="1.0" encoding="utf-8"?>
<!-- Generator: Adobe Illustrator 24.1.1, SVG Export Plug-In . SVG Version: 6.00 Build 0)  -->
<svg version="1.1" id="Capa_1" xmlns="http://www.w3.org/2000/svg" xmlns:xlink="http://www.w3.org/1999/xlink" x="0px" y="0px"
	 viewBox="0 0 50 50" style="enable-background:new 0 0 50 50;" xml:space="preserve">
<style type="text/css">
	.st0{fill:#81868E;}
</style>
<g>
	<path class="st0" d="M32.2,17.7c-1.3,0-1.9,0.4-2.5,0.8l-0.1,0.1c-0.3,0.2-0.6,0.4-1,0.5l-0.1,0c-0.1,0-0.1,0.1-0.2,0.1
		c-0.1,0-0.2,0.1-0.3,0.1c-0.8,0.3-1.9,0.5-3,0.5c-1.2,0-2.4-0.2-3.3-0.6c-0.1,0-0.2-0.1-0.3-0.1c-0.4-0.2-0.7-0.4-1-0.6
		c-0.7-0.4-1.2-0.8-2.6-0.8c-1,0-2.1,0.5-3.1,1.5c-3,3-5,9.5-5,13.8c0,1.1,0.2,3.8,1.9,3.8c1.3,0,3-1.1,5-3.2
		c1.5-1.6,3.6-2.6,5.7-2.6h5.4c2.1,0,4.2,1,5.7,2.6c2,2.1,3.7,3.2,4.9,3.2c1.7,0,1.9-2.6,1.9-3.8c0-4.2-2-10.7-5-13.8
		C34.3,18.2,33.3,17.7,32.2,17.7z M19.3,26.3h-1v1c0,0.5-0.4,1-1,1c-0.5,0-1-0.4-1-1v-1h-1c-0.5,0-1-0.4-1-1c0-0.5,0.4-1,1-1h1v-1
		c0-0.5,0.4-1,1-1c0.5,0,1,0.4,1,1v1h1c0.5,0,1,0.4,1,1C20.2,25.8,19.8,26.3,19.3,26.3z M26.9,26.3h-3.8c-0.5,0-1-0.4-1-1
		c0-0.5,0.4-1,1-1h3.8c0.5,0,1,0.4,1,1C27.9,25.8,27.4,26.3,26.9,26.3z M32.6,22.4c0.5,0,1,0.4,1,1c0,0.5-0.4,1-1,1
		c-0.5,0-1-0.4-1-1C31.7,22.9,32.1,22.4,32.6,22.4z M30.7,26.3c-0.5,0-1-0.4-1-1c0-0.5,0.4-1,1-1c0.5,0,1,0.4,1,1
		C31.7,25.8,31.3,26.3,30.7,26.3z M32.6,28.2c-0.5,0-1-0.4-1-1c0-0.5,0.4-1,1-1c0.5,0,1,0.4,1,1C33.6,27.7,33.2,28.2,32.6,28.2z
		 M34.5,26.3c-0.5,0-1-0.4-1-1c0-0.5,0.4-1,1-1c0.5,0,1,0.4,1,1C35.5,25.8,35.1,26.3,34.5,26.3z"/>
	<path class="st0" d="M25,0C11.2,0,0,11.2,0,25s11.2,25,25,25s25-11.2,25-25S38.8,0,25,0z M41.3,33c0,4.3-2.1,4.8-2.9,4.8
		c-1.6,0-3.4-1.2-5.7-3.5c-1.3-1.4-3.2-2.3-5-2.3h-5.4c-1.8,0-3.6,0.8-4.9,2.3c-2.2,2.3-4.1,3.5-5.7,3.5c-0.9,0-2.9-0.5-2.9-4.8
		c0-4.4,2.1-11.3,5.2-14.5c1.2-1.2,2.5-1.8,3.8-1.8c1.7,0,2.4,0.5,3.1,1c0.3,0.2,0.5,0.4,0.9,0.5c0.1,0.1,0.2,0.1,0.3,0.1
		c0.8,0.3,1.7,0.5,2.7,0.5c-0.7-0.8-1-1.6-1-2.5c0-1.3,0.8-2.2,1.5-3.1c0.6-0.7,1.2-1.4,1.5-2.3c0.5-1.5,0.1-3.4-1.2-5.7
		c-0.1-0.2-0.1-0.5,0.2-0.7c0.2-0.1,0.5-0.1,0.7,0.2c1.5,2.5,1.9,4.7,1.3,6.5c-0.4,1.2-1.1,2-1.7,2.7c-0.7,0.8-1.3,1.5-1.3,2.4
		c0,0.8,0.5,1.6,1.3,2.4c0,0,0,0,0,0c0.6-0.1,1.2-0.2,1.7-0.4c0.1,0,0.2-0.1,0.2-0.1l0.3-0.1c0.3-0.1,0.5-0.3,0.8-0.5l0.1-0.1
		c0.7-0.5,1.5-1,3.1-1c1.3,0,2.6,0.6,3.8,1.8C39.2,21.7,41.3,28.6,41.3,33L41.3,33z"/>
</g>
</svg>
