<?xml version="1.0" encoding="utf-8"?>
<!-- Generator: Adobe Illustrator 24.1.1, SVG Export Plug-In . SVG Version: 6.00 Build 0)  -->
<svg version="1.1" id="Слой_1" xmlns="http://www.w3.org/2000/svg" xmlns:xlink="http://www.w3.org/1999/xlink" x="0px" y="0px"
	 viewBox="0 0 50 50" style="enable-background:new 0 0 50 50;" xml:space="preserve">
<style type="text/css">
	.st0{fill:#81868E;}
</style>
<g>
	<path class="st0" d="M30.2,14.6c-1.3,0-2.6,0.4-3.7,1.3c-0.4,0.3-0.8,0.7-1.2,1.2L25,17.4l-0.3-0.3c-0.4-0.5-0.8-0.9-1.2-1.2
		c-1.1-0.8-2.3-1.3-3.7-1.3c-1.8,0-3.5,0.7-4.7,2c-1.2,1.3-1.9,3.1-1.9,5c0,2,0.7,3.8,2.3,5.7c1.4,1.7,3.4,3.4,5.8,5.4l0.1,0.1
		c0.8,0.7,1.7,1.4,2.6,2.2c0.5,0.4,1.3,0.4,1.8,0c0.9-0.8,1.8-1.6,2.6-2.3c2.4-2,4.4-3.8,5.8-5.5c1.6-1.9,2.3-3.7,2.3-5.7
		c0-1.9-0.7-3.7-1.9-5C33.6,15.3,32,14.6,30.2,14.6z"/>
	<path class="st0" d="M25,0C11.2,0,0,11.2,0,25s11.2,25,25,25s25-11.2,25-25S38.8,0,25,0z M34.9,27.8c-1.5,1.8-3.5,3.5-5.9,5.5
		c-0.8,0.7-1.7,1.5-2.7,2.3c-0.4,0.3-0.9,0.5-1.4,0.5c-0.5,0-1-0.2-1.4-0.5c-0.9-0.8-1.8-1.5-2.6-2.2L21,33.3
		c-2.4-2-4.4-3.8-5.9-5.5c-1.7-2-2.5-4-2.5-6.1c0-2.1,0.7-4,2-5.5c1.3-1.5,3.2-2.3,5.2-2.3c1.5,0,2.9,0.5,4.1,1.4
		c0.4,0.3,0.7,0.6,1.1,1c0.3-0.4,0.7-0.7,1.1-1c1.2-0.9,2.6-1.4,4.1-1.4c2,0,3.8,0.8,5.2,2.3c1.3,1.4,2,3.4,2,5.5
		C37.4,23.8,36.6,25.7,34.9,27.8z"/>
</g>
</svg>
