<?xml version="1.0" encoding="utf-8"?>
<!-- Generator: Adobe Illustrator 24.1.1, SVG Export Plug-In . SVG Version: 6.00 Build 0)  -->
<svg version="1.1" id="Capa_1" xmlns="http://www.w3.org/2000/svg" xmlns:xlink="http://www.w3.org/1999/xlink" x="0px" y="0px"
	 viewBox="0 0 30 30" style="enable-background:new 0 0 30 30;" xml:space="preserve">
<style type="text/css">
	.st0{fill:#FFFFFF;}
</style>
<circle cx="15" cy="15" r="15"/>
<g transform="translate(1 1)">
	<g>
		<g>
			<path class="st0" d="M12.3,19.2l-2.4,2.4c-1,1-2.6,1-3.5,0c-1-1-1-2.6,0-3.5l4.7-4.7c1-1,2.6-1,3.5,0c0.3,0.3,0.9,0.3,1.2,0
				c0.3-0.3,0.3-0.9,0-1.2c-1.6-1.6-4.3-1.6-5.9,0l-4.7,4.7c-1.6,1.6-1.6,4.3,0,5.9c1.6,1.6,4.3,1.6,5.9,0l2.4-2.4
				c0.3-0.3,0.3-0.9,0-1.2C13.1,18.9,12.6,18.9,12.3,19.2z"/>
			<path class="st0" d="M22.8,5.2c-1.6-1.6-4.3-1.6-5.9,0L14.1,8c-0.3,0.3-0.3,0.9,0,1.2c0.3,0.3,0.9,0.3,1.2,0l2.8-2.8
				c1-1,2.6-1,3.5,0c1,1,1,2.6,0,3.5l-5.2,5.2c-1,1-2.6,1-3.5,0c-0.3-0.3-0.9-0.3-1.2,0s-0.3,0.9,0,1.2c1.6,1.6,4.3,1.6,5.9,0
				l5.2-5.2C24.4,9.5,24.4,6.8,22.8,5.2z"/>
		</g>
	</g>
</g>
</svg>
