<?xml version="1.0" encoding="utf-8"?>
<!-- Generator: Adobe Illustrator 24.1.1, SVG Export Plug-In . SVG Version: 6.00 Build 0)  -->
<svg version="1.1" id="Icons" xmlns="http://www.w3.org/2000/svg" xmlns:xlink="http://www.w3.org/1999/xlink" x="0px" y="0px"
	 viewBox="0 0 50 50" style="enable-background:new 0 0 50 50;" xml:space="preserve">
<g>
	<path d="M25,50l-0.4-0.5C21.9,46,8.1,27.6,8.1,17c0-9.3,7.6-17,17-17h0c9.3,0,17,7.6,17,17c0,10.6-13.8,29-16.6,32.6L25,50z M25,1
		c-8.8,0-15.9,7.2-16,16c0,9.9,12.5,26.9,16,31.4c3.4-4.5,16-21.5,16-31.4C41,8.2,33.8,1,25,1L25,1z"/>
</g>
<g>
	<path d="M25,30.5L25,30.5c-7.4,0-13.3-6-13.3-13.3c0-7.3,6-13.3,13.3-13.3c7.4,0,13.3,6,13.3,13.3C38.3,24.5,32.4,30.5,25,30.5z
		 M25,4.9c-6.8,0-12.3,5.5-12.3,12.3S18.2,29.5,25,29.5c6.8,0,12.3-5.5,12.3-12.3C37.3,10.4,31.8,4.9,25,4.9z"/>
</g>
</svg>
