<?xml version="1.0" encoding="utf-8"?>
<!-- Generator: Adobe Illustrator 24.1.1, SVG Export Plug-In . SVG Version: 6.00 Build 0)  -->
<svg version="1.1" id="Capa_1" xmlns="http://www.w3.org/2000/svg" xmlns:xlink="http://www.w3.org/1999/xlink" x="0px" y="0px"
	 viewBox="0 0 50.2 50.2" style="enable-background:new 0 0 50.2 50.2;" xml:space="preserve">
<g>
	<path d="M39.8,50.3c-0.2,0-0.4,0-0.6,0c-3.8-0.2-7.4-1.7-10-3C22,43.9,15.8,39,10.6,32.8c-4.3-5.1-7.2-9.9-9.1-15.1
		C0.3,14.5-0.1,11.9,0,9.5v0c0.2-1.7,0.8-3.1,2-4.3L6.2,1c1.6-1.5,3.5-1.5,5,0c0.6,0.6,1.3,1.2,1.9,1.9l4.9,4.9
		c0.8,0.8,1.3,1.7,1.3,2.6s-0.4,1.7-1.3,2.6l-1.3,1.3c-1,1-1.9,1.9-2.9,2.8c-0.7,0.7-0.7,1.2-0.4,1.9c0.9,2.1,2.1,4.1,3.9,6.4
		c3.3,4.1,6.9,7.3,10.8,9.8c0.4,0.3,0.8,0.5,1.2,0.7l0.3,0.1c0.5,0.2,0.9,0.5,1.3,0.7c1.2,0.6,1.9-0.1,2.1-0.3l4.2-4.2
		c1.6-1.6,3.6-1.5,5,0l6.8,6.8c1.6,1.6,1.6,3.5,0,5.2c-0.5,0.5-1,1-1.5,1.5l-0.1,0.1c-0.7,0.7-1.5,1.5-2.2,2.3
		C43.7,49.6,42,50.3,39.8,50.3z M1.3,9.6c-0.2,2.2,0.3,4.6,1.4,7.6c1.9,5,4.7,9.7,8.9,14.7c5.1,6.1,11.2,10.9,18.2,14.2
		c2.5,1.2,5.9,2.6,9.5,2.9c0.2,0,0.4,0,0.5,0c1.8,0,3.2-0.6,4.4-1.9c0.7-0.9,1.5-1.6,2.3-2.4l0.1-0.1c0.5-0.5,1-1,1.5-1.5
		c1.2-1.2,1.2-2.3,0-3.4L41.3,33c-0.3-0.3-0.9-0.8-1.6-0.8c-0.5,0-1.1,0.3-1.6,0.8l-4.2,4.2c-1,1-2.3,1.2-3.5,0.6l0.2-0.6l-0.3,0.6
		c-0.4-0.3-0.8-0.5-1.3-0.7L28.7,37c-0.4-0.2-0.9-0.4-1.3-0.7c-4-2.6-7.6-5.9-11.1-10.1c-1.9-2.4-3.2-4.4-4.1-6.6l0-0.1
		c-0.3-0.8-0.5-2,0.7-3.2c1.1-1,2-1.9,2.9-2.9l1.3-1.3c0.6-0.6,0.9-1.1,0.9-1.7s-0.3-1.1-0.9-1.7l-4.9-4.9c-0.6-0.7-1.3-1.3-1.9-1.9
		c-1.1-1.1-2.2-1-3.3,0L2.9,6.1C2,7.1,1.4,8.2,1.3,9.6z"/>
</g>
</svg>
