<?xml version="1.0" encoding="utf-8"?>
<!-- Generator: Adobe Illustrator 24.1.1, SVG Export Plug-In . SVG Version: 6.00 Build 0)  -->
<svg version="1.1" id="Слой_1" xmlns="http://www.w3.org/2000/svg" xmlns:xlink="http://www.w3.org/1999/xlink" x="0px" y="0px"
	 viewBox="0 0 25 25" style="enable-background:new 0 0 25 25;" xml:space="preserve">
<g>
	<path d="M18.4,8.1c-0.1-0.3-0.3-0.6-0.6-0.9c-0.2-0.2-0.5-0.4-0.9-0.6c-0.3-0.1-0.7-0.2-1.4-0.3c-0.8,0-1,0-3,0c-2,0-2.2,0-3,0
		c-0.7,0-1.1,0.2-1.4,0.3C7.8,6.8,7.5,7,7.2,7.2C7,7.5,6.8,7.8,6.7,8.1C6.6,8.3,6.4,8.7,6.4,9.5c0,0.8,0,1,0,3s0,2.2,0,3
		c0,0.7,0.2,1.1,0.3,1.4c0.1,0.3,0.3,0.6,0.6,0.9c0.2,0.2,0.5,0.4,0.9,0.6c0.3,0.1,0.7,0.2,1.4,0.3c0.8,0,1,0,3,0c2,0,2.2,0,3,0
		c0.7,0,1.1-0.2,1.4-0.3c0.7-0.3,1.2-0.8,1.4-1.4c0.1-0.3,0.2-0.7,0.3-1.4c0-0.8,0-1,0-3s0-2.2,0-3C18.6,8.7,18.5,8.3,18.4,8.1z
		 M12.5,16.4c-2.1,0-3.9-1.7-3.9-3.9c0-2.1,1.7-3.9,3.9-3.9c2.1,0,3.9,1.7,3.9,3.9C16.4,14.6,14.6,16.4,12.5,16.4z M16.5,9.4
		c-0.5,0-0.9-0.4-0.9-0.9c0-0.5,0.4-0.9,0.9-0.9c0.5,0,0.9,0.4,0.9,0.9C17.4,9,17,9.4,16.5,9.4z"/>
	<path d="M12.5,10c-1.4,0-2.5,1.1-2.5,2.5c0,1.4,1.1,2.5,2.5,2.5c1.4,0,2.5-1.1,2.5-2.5C15,11.1,13.9,10,12.5,10z"/>
	<path d="M12.5,0C5.6,0,0,5.6,0,12.5S5.6,25,12.5,25S25,19.4,25,12.5S19.4,0,12.5,0z M20,15.6c0,0.8-0.2,1.3-0.3,1.8
		c-0.4,1-1.2,1.8-2.2,2.2c-0.5,0.2-1,0.3-1.8,0.3c-0.8,0-1.1,0-3.1,0s-2.3,0-3.1,0c-0.8,0-1.3-0.2-1.8-0.3c-0.5-0.2-1-0.5-1.3-0.9
		c-0.4-0.4-0.7-0.8-0.9-1.3c-0.2-0.5-0.3-1-0.3-1.8c0-0.8,0-1.1,0-3.1c0-2,0-2.3,0-3.1c0-0.8,0.2-1.3,0.3-1.8c0.2-0.5,0.5-1,0.9-1.3
		c0.4-0.4,0.8-0.7,1.3-0.9c0.5-0.2,1-0.3,1.8-0.3c0.8,0,1.1,0,3.1,0s2.3,0,3.1,0c0.8,0,1.3,0.2,1.8,0.3c0.5,0.2,1,0.5,1.3,0.9
		c0.4,0.4,0.7,0.8,0.9,1.3c0.2,0.5,0.3,1,0.3,1.8c0,0.8,0,1.1,0,3.1C20,14.5,20,14.8,20,15.6z"/>
</g>
</svg>
