<?xml version="1.0" encoding="utf-8"?>
<!-- Generator: Adobe Illustrator 24.1.1, SVG Export Plug-In . SVG Version: 6.00 Build 0)  -->
<svg version="1.1" id="Capa_1" xmlns="http://www.w3.org/2000/svg" xmlns:xlink="http://www.w3.org/1999/xlink" x="0px" y="0px"
	 viewBox="0 0 25.1 25.1" style="enable-background:new 0 0 25.1 25.1;" xml:space="preserve">
<style type="text/css">
	.st0{fill:#030104;}
</style>
<g>
	<polygon class="st0" points="13.6,11.4 13.6,11.3 13.6,11.4 	"/>
	<path class="st0" d="M12.5,0C5.6,0,0,5.6,0,12.5s5.6,12.5,12.5,12.5c6.9,0,12.5-5.6,12.5-12.5S19.5,0,12.5,0z M4.6,5.4
		c0.4-0.3,0.9-0.5,1.5-0.5c0.5,0,0.9,0.2,1.3,0.5c0.3,0.3,0.5,0.8,0.5,1.3c0,0.5-0.2,0.9-0.5,1.3C7,8.3,6.5,8.5,5.9,8.5h0
		c-0.6,0-1-0.2-1.4-0.5C4.2,7.6,4,7.2,4,6.7C4,6.2,4.2,5.8,4.6,5.4z M7.9,20.1H4.2V9.9h3.7V20.1z M21.1,20.1h-3.7v-5.5
		c0-0.7-0.1-1.3-0.4-1.7c-0.3-0.4-0.8-0.6-1.4-0.6c-0.5,0-0.9,0.1-1.2,0.4c-0.3,0.3-0.5,0.5-0.7,0.9c0,0.1-0.1,0.2-0.1,0.4
		c0,0.1,0,0.3,0,0.4v5.7H9.9c0-1.7,0-3.3,0-4.8v-1.8v-1.7c0-0.5,0-0.9,0-1.3c0-0.4,0-0.6,0-0.7h3.7v1.5c0.1-0.2,0.3-0.4,0.4-0.6
		c0.2-0.2,0.4-0.4,0.7-0.5c0.3-0.2,0.6-0.3,0.9-0.4c0.4-0.1,0.8-0.2,1.3-0.2c0.6,0,1.2,0.1,1.7,0.3c0.5,0.2,1,0.5,1.3,0.9
		c0.4,0.4,0.7,0.9,0.9,1.4c0.2,0.6,0.3,1.3,0.3,2V20.1z"/>
</g>
</svg>
